<?xml version="1.0" encoding="utf-8"?>
<!-- Generator: Adobe Illustrator 21.0.0, SVG Export Plug-In . SVG Version: 6.00 Build 0)  -->
<svg version="1.1" id="Capa_1" xmlns="http://www.w3.org/2000/svg" xmlns:xlink="http://www.w3.org/1999/xlink" x="0px" y="0px"
	 viewBox="0 0 16 16" style="enable-background:new 0 0 16 16;" xml:space="preserve">
<style type="text/css">
	.st0{fill:#FFFFFF;}
	.st1{fill:#7B8294;}
</style>
<path class="st0" d="M6.8,1.7c-3.4,0.5-6,3.5-6,7.2c0,4,3.2,7.2,7.2,7.2s7.2-3.2,7.2-7.3c0-3.6-2.6-6.6-6.1-7.2L6.8,1.7z"/>
<path class="st1" d="M16,8c0-4.4-3.6-8-8-8S0,3.6,0,8.1c0,4,2.9,7.3,6.8,8v-5.6h-2V8.1h2V6.3c0-2,1.2-3.1,3-3.1
	c0.9,0,1.8,0.2,1.8,0.2v2h-1c-1,0-1.3,0.6-1.3,1.3V8h2.2l-0.4,2.3H9.3V16C13.1,15.4,16,12.1,16,8z"/>
<path class="st1" d="M28.2,6.3"/>
<path class="st1" d="M26.2,10.5V8.1"/>
<path class="st1" d="M32.9,8"/>
<path class="st1" d="M30.7,6.7"/>
</svg>
