<?xml version="1.0" encoding="utf-8"?>
<!-- Generator: Adobe Illustrator 21.0.0, SVG Export Plug-In . SVG Version: 6.00 Build 0)  -->
<svg version="1.1" id="Layer_1" xmlns="http://www.w3.org/2000/svg" xmlns:xlink="http://www.w3.org/1999/xlink" x="0px" y="0px"
	 viewBox="0 0 329.8 335.4" style="enable-background:new 0 0 329.8 335.4;" xml:space="preserve">
<style type="text/css">
	.st0{fill:none;}
	.st1{fill:#7B8294;}
	.st2{fill:#FFFFFF;}
</style>
<path class="st0" d="M229.8,30.9h-66.1H97.4h-9.7c-17.6,0-33.6,7.1-45.1,18.7c-5.5,5.5-10,11.9-13.2,19.1c-3.6,7.9-5.5,16.7-5.5,26
	v5.1v37.3V197v42.2v9c0,10.8,2.7,20.9,7.4,29.8c3,5.7,6.8,10.8,11.3,15.3C54.2,304.9,70.1,312,87.7,312h9.7h66.3h66.1h11.5
	c17.6,0,33.6-7.1,45.1-18.7c4.5-4.5,8.3-9.7,11.3-15.3c4.7-8.9,7.4-19,7.4-29.8v-9V197v-59.9V99.8v-5.1c0-9.3-2-18.1-5.5-26
	c-3.2-7.2-7.7-13.6-13.2-19.1c-11.5-11.5-27.5-18.7-45.1-18.7H229.8z"/>
<g>
	<path class="st1" d="M305.4,96.9v149.5c0,36.4-29.5,66-66,66H89.9c-36.4,0-66-29.5-66-66V96.9c0-36.4,29.5-66,66-66h149.5
		C275.9,30.9,305.4,60.5,305.4,96.9L305.4,96.9z"/>
</g>
<path class="st2" d="M208.1,68.6h-87.3c-32.9,0-59.6,26.7-59.6,59.6v87.3c0,32.9,26.7,59.6,59.6,59.6h87.3
	c32.9,0,59.6-26.7,59.6-59.6v-87.3C267.7,95.3,241,68.6,208.1,68.6 M248.7,217c0,21.8-17.7,39.5-39.6,39.5h-89.3
	c-21.8,0-39.5-17.7-39.5-39.5v-89.3c0-21.8,17.7-39.5,39.5-39.5h89.3c21.8,0,39.6,17.7,39.6,39.5V217z"/>
<path class="st2" d="M164.5,118.8c-29.6,0-53.6,24-53.6,53.6c0,29.6,24,53.6,53.6,53.6c29.6,0,53.6-24,53.6-53.6
	C218.1,142.8,194.1,118.8,164.5,118.8 M164.5,207.1c-19.2,0-34.7-15.5-34.7-34.7c0-19.2,15.5-34.7,34.7-34.7
	c19.2,0,34.7,15.5,34.7,34.7C199.2,191.5,183.7,207.1,164.5,207.1"/>
<path class="st2" d="M219.8,104.3c-6.9,0-12.5,5.6-12.5,12.5c0,6.9,5.6,12.5,12.5,12.5c6.9,0,12.5-5.6,12.5-12.5
	C232.3,109.8,226.7,104.3,219.8,104.3"/>
</svg>
