<?xml version="1.0" encoding="utf-8"?>
<!-- Generator: Adobe Illustrator 21.0.0, SVG Export Plug-In . SVG Version: 6.00 Build 0)  -->
<svg version="1.1" id="Capa_1" xmlns="http://www.w3.org/2000/svg" xmlns:xlink="http://www.w3.org/1999/xlink" x="0px" y="0px"
	 viewBox="0 0 270.3 128.1" style="enable-background:new 0 0 270.3 128.1;" xml:space="preserve">
<style type="text/css">
	.st0{fill:#7B8294;}
	.st1{fill:#C12832;}
	.st2{fill:none;stroke:#000000;stroke-width:2;stroke-linecap:round;stroke-linejoin:round;stroke-miterlimit:10;}
</style>
<path class="st0" d="M26,70.2v5.3h9v6.9h-9v12.3h-8.2V63.3h18.1v6.9H26z"/>
<path class="st0" d="M62.8,63.4c2.1,0.8,4,1.9,5.6,3.4c1.6,1.5,2.9,3.2,3.9,5.2c0.9,2,1.4,4.1,1.4,6.4c0,2.5-0.4,4.8-1.3,7
	c-0.9,2.1-2.1,4-3.6,5.5c-1.6,1.5-3.4,2.7-5.5,3.6c-2.1,0.8-4.5,1.3-6.9,1.3c-2.5,0-4.8-0.4-6.9-1.3c-2.1-0.8-4-2.1-5.5-3.6
	s-2.8-3.4-3.6-5.5c-0.9-2.1-1.3-4.4-1.3-6.9c0-2.3,0.5-4.5,1.4-6.4c0.9-2,2.2-3.7,3.9-5.2c1.6-1.5,3.5-2.6,5.6-3.4
	c2.1-0.8,4.3-1.2,6.5-1.2C58.5,62.2,60.7,62.6,62.8,63.4z M52.9,70.8c-1.1,0.4-2,1.1-2.9,1.9c-0.8,0.8-1.5,1.7-1.9,2.7
	c-0.5,1-0.7,2-0.7,3.1c0,1.3,0.2,2.6,0.7,3.7c0.5,1.1,1.1,2.1,1.9,3c0.8,0.9,1.8,1.5,2.9,2c1.1,0.5,2.2,0.7,3.4,0.7
	c1.2,0,2.3-0.2,3.4-0.7c1.1-0.5,2-1.1,2.9-2c0.8-0.9,1.5-1.9,1.9-3c0.5-1.1,0.7-2.4,0.7-3.7c0-1.1-0.2-2.1-0.7-3.1
	c-0.5-1-1.1-1.9-1.9-2.7c-0.8-0.8-1.8-1.4-2.9-1.8c-1.1-0.4-2.2-0.7-3.4-0.7C55.1,70.2,54,70.4,52.9,70.8z"/>
<path class="st0" d="M104.8,63.3V81c0,2.6-0.2,4.7-0.6,6.4c-0.4,1.7-1.3,3.3-2.7,4.7c-1.2,1.2-2.8,2.1-4.6,2.7
	C95,95.3,93,95.6,91,95.6c-2,0-3.9-0.3-5.8-0.8c-1.9-0.6-3.4-1.4-4.6-2.7c-1.4-1.4-2.3-2.9-2.7-4.7c-0.4-1.7-0.6-3.9-0.6-6.4V63.3
	h8.2v16.6c0,1.3,0,2.4,0.1,3.3c0.1,0.9,0.3,1.8,0.7,2.6c0.4,0.8,0.9,1.5,1.7,1.9c0.8,0.5,1.8,0.7,3,0.7c1.3,0,2.3-0.2,3-0.7
	c0.8-0.5,1.3-1.1,1.7-1.9c0.4-0.8,0.6-1.7,0.7-2.6c0.1-0.9,0.1-2,0.1-3.3V63.3H104.8z"/>
<path class="st0" d="M136.1,94.7h-10.2l-7.7-12.1h-0.1v12.1h-8.2V63.3h12.2c3.3,0,5.9,0.8,7.9,2.4c2,1.6,3,4,3,7.3
	c0,2.3-0.6,4.2-1.8,5.8c-1.2,1.6-2.9,2.7-5.1,3L136.1,94.7z M118.1,77.4h0.8c0.8,0,1.5,0,2.1-0.1c0.7-0.1,1.3-0.3,1.8-0.6
	c0.5-0.3,1-0.7,1.3-1.2c0.3-0.5,0.5-1.2,0.5-2c0-0.8-0.2-1.5-0.5-2c-0.3-0.5-0.8-0.9-1.3-1.2c-0.5-0.3-1.1-0.5-1.8-0.6
	c-0.7-0.1-1.4-0.1-2.1-0.1h-0.8V77.4z"/>
<g>
	<path class="st1" d="M154.1,94.1l-0.2-3.9c-0.7,1.4-1.7,2.6-3.1,3.4c-1.4,0.8-2.9,1.2-4.7,1.2c-3.1,0-5.6-1.1-7.3-3.2
		c-1.8-2.1-2.7-5-2.7-8.7c0-3.6,0.9-6.5,2.7-8.6c1.8-2.1,4.3-3.1,7.4-3.1c2.6,0,4.7,0.6,6.3,1.9c1.6,1.2,2.6,3,2.9,5.2h-2.1
		c-0.3-1.6-1.1-2.9-2.4-3.9c-1.3-0.9-2.8-1.4-4.8-1.4c-2.6,0-4.6,0.9-6,2.6c-1.4,1.7-2.1,4.2-2.1,7.3c0,3.1,0.7,5.5,2.1,7.3
		c1.4,1.8,3.3,2.7,5.7,2.7c2.5,0,4.4-0.7,5.7-2.2c1.4-1.4,2.1-3.5,2.1-6.1v-0.1h-7.4v-1.8h9.3v11.5H154.1z"/>
	<path class="st1" d="M163.9,94.1V71.7h7.5c1.7,0,3,0.1,3.8,0.2s1.4,0.4,2,0.7c0.9,0.5,1.6,1.2,2,2.1c0.5,0.9,0.7,1.9,0.7,3
		c0,1.4-0.3,2.5-0.9,3.5c-0.6,0.9-1.5,1.6-2.7,2c0.9,0.3,1.6,0.8,2,1.4c0.4,0.6,0.7,1.9,0.8,3.8l0.3,3.4c0,0.5,0.1,1,0.2,1.3
		c0.1,0.3,0.3,0.6,0.5,0.8v0.3h-2.3c-0.1-0.2-0.2-0.5-0.3-0.9c-0.1-0.4-0.1-0.8-0.2-1.4l-0.3-3c-0.2-2-0.5-3.3-1.1-3.9
		c-0.6-0.6-1.7-0.8-3.5-0.8H166v10H163.9z M166,82.3h5.9c2.1,0,3.6-0.4,4.5-1.1c0.9-0.7,1.4-1.9,1.4-3.4c0-0.7-0.1-1.4-0.4-2
		c-0.3-0.6-0.7-1.1-1.2-1.4c-0.4-0.3-0.9-0.5-1.5-0.6c-0.6-0.1-1.5-0.2-2.8-0.2h-0.9h-5V82.3z"/>
	<path class="st1" d="M186.6,82.9c0-3.6,0.9-6.5,2.8-8.6c1.8-2.1,4.3-3.2,7.5-3.2c3.1,0,5.6,1.1,7.5,3.2c1.8,2.1,2.8,5,2.8,8.6
		c0,3.6-0.9,6.5-2.8,8.6c-1.8,2.1-4.3,3.2-7.5,3.2c-3.1,0-5.6-1.1-7.5-3.2C187.5,89.4,186.6,86.6,186.6,82.9z M188.7,82.9
		c0,3.1,0.7,5.5,2.2,7.3c1.5,1.8,3.4,2.7,5.9,2.7c2.5,0,4.5-0.9,6-2.7c1.5-1.8,2.2-4.2,2.2-7.3c0-3.1-0.7-5.5-2.2-7.3
		c-1.5-1.8-3.5-2.7-6-2.7c-2.5,0-4.4,0.9-5.9,2.7C189.5,77.5,188.7,79.9,188.7,82.9z"/>
	<path class="st1" d="M214.6,71.7h2v14.1c0,2.5,0.5,4.3,1.5,5.4c1,1.1,2.7,1.7,4.9,1.7s3.9-0.6,4.9-1.7c1-1.1,1.5-2.9,1.5-5.4V71.7
		h2v14.4c0,2.8-0.7,5-2.1,6.4c-1.4,1.4-3.6,2.2-6.4,2.2c-2.8,0-4.9-0.7-6.4-2.2c-1.4-1.4-2.1-3.6-2.1-6.4V71.7z"/>
	<path class="st1" d="M239.9,94.1V71.7h7.8c2.4,0,4.3,0.5,5.5,1.6c1.2,1.1,1.8,2.6,1.8,4.7c0,2.2-0.7,3.8-2.1,4.8
		c-1.4,1-3.5,1.6-6.3,1.6H242v9.7H239.9z M242,82.5h4.8c2.2,0,3.8-0.4,4.8-1.1c1-0.7,1.4-1.9,1.4-3.5c0-1.5-0.4-2.6-1.3-3.3
		c-0.9-0.7-2.2-1.1-4-1.1H242V82.5z"/>
</g>
<g>
	<path class="st0" d="M17.9,56.9H3.3v-8.5h14.6V2.9l119.3,54H26v16.8h-8.1V56.9z M111.5,50.3L26,12.7v35.7L111.5,50.3z"/>
</g>
<line class="st2" x1="17.9" y1="99.3" x2="265.6" y2="99.3"/>
<g>
	<path d="M21.7,122v-17.8h10.2c1.7,0,3.1,0.4,4.1,1.3c1,0.9,1.5,2,1.5,3.5c0,1.5-0.5,2.8-1.4,3.8c-1,1-2.2,1.4-3.8,1.4h-8.3v7.8
		H21.7z M23.9,112.1h7.8c1.1,0,2-0.2,2.5-0.7c0.6-0.5,0.9-1.2,0.9-2.2c0-0.9-0.3-1.7-0.9-2.2c-0.6-0.5-1.4-0.8-2.4-0.8h-8V112.1z"/>
	<path d="M44.9,122v-17.8h10.2c1.7,0,3.1,0.4,4.1,1.3c1,0.9,1.5,2.1,1.5,3.6c0,1.3-0.4,2.4-1.2,3.3c-0.8,0.9-1.8,1.5-3.1,1.7
		l4.4,7.8h-2.4l-4.4-7.8h-6.9v7.8H44.9z M47.1,112.1h7.8c1.1,0,2-0.2,2.5-0.7c0.6-0.5,0.9-1.2,0.9-2.2c0-0.9-0.3-1.7-0.9-2.2
		c-0.6-0.5-1.4-0.8-2.4-0.8h-8V112.1z"/>
	<path d="M76.3,122.4c-2.7,0-4.9-0.9-6.6-2.6c-1.7-1.8-2.6-4-2.6-6.7c0-2.7,0.9-4.9,2.6-6.7c1.7-1.8,3.9-2.6,6.6-2.6
		c2.7,0,4.9,0.9,6.6,2.6s2.6,4,2.6,6.7s-0.9,4.9-2.6,6.7C81.1,121.6,78.9,122.4,76.3,122.4z M76.3,120.4c2,0,3.7-0.7,5-2
		s2-3.1,2-5.2c0-2.1-0.7-3.8-2-5.2c-1.3-1.4-3-2-5-2c-2,0-3.7,0.7-5,2.1c-1.3,1.4-2,3.1-2,5.2s0.7,3.8,2,5.2S74.3,120.4,76.3,120.4z
		"/>
	<path d="M93.1,122v-17.8h10.2c1.7,0,3.1,0.4,4.1,1.3c1,0.9,1.5,2,1.5,3.5c0,1.5-0.5,2.8-1.4,3.8c-1,1-2.2,1.4-3.8,1.4h-8.3v7.8
		H93.1z M95.3,112.1h7.8c1.1,0,2-0.2,2.5-0.7c0.6-0.5,0.9-1.2,0.9-2.2c0-0.9-0.3-1.7-0.9-2.2c-0.6-0.5-1.4-0.8-2.4-0.8h-8V112.1z"/>
	<path d="M116.3,122v-17.9h2.2V122H116.3z"/>
	<path d="M127.7,122v-17.8h14v2h-11.8v5.2h7.1v2h-7.1v6.4h12.5v2H127.7z"/>
	<path d="M157.2,104.2c2.8,0,5.1,0.8,6.8,2.5s2.6,3.8,2.6,6.5c0,2.7-0.8,4.8-2.5,6.4c-1.7,1.6-4,2.4-6.8,2.4h-7.6v-17.8H157.2z
		 M157.2,106.2h-5.4v13.7h5.4c2.2,0,3.9-0.6,5.2-1.8c1.3-1.2,1.9-2.9,1.9-5c0-2.1-0.6-3.7-1.9-5C161,106.9,159.3,106.2,157.2,106.2z
		"/>
	<path d="M170.9,122l8.7-17.8h1.8l8.8,17.8h-2.4l-2.4-4.8h-9.8l-2.4,4.8H170.9z M176.7,115.1h7.8l-3.9-7.9L176.7,115.1z"/>
	<path d="M204.4,104.2c2.8,0,5.1,0.8,6.8,2.5c1.7,1.7,2.6,3.8,2.6,6.5c0,2.7-0.8,4.8-2.5,6.4c-1.7,1.6-4,2.4-6.8,2.4h-7.6v-17.8
		H204.4z M204.4,106.2H199v13.7h5.4c2.2,0,3.9-0.6,5.2-1.8c1.3-1.2,1.9-2.9,1.9-5c0-2.1-0.6-3.7-1.9-5
		C208.3,106.9,206.6,106.2,204.4,106.2z"/>
	<path d="M221.4,122v-17.8h14v2h-11.8v5.2h7.1v2h-7.1v6.4h12.5v2H221.4z"/>
	<path d="M241.6,119.3l1.3-1.9c1.3,1,2.6,1.7,3.9,2.2s2.7,0.8,4,0.8c1.6,0,3-0.3,4-1c1-0.7,1.5-1.6,1.5-2.7c0-0.9-0.4-1.6-1.1-2.2
		c-0.7-0.6-1.8-0.9-3.1-1c-0.3,0-0.8-0.1-1.4-0.1c-2.9-0.2-4.9-0.5-6-1c-0.8-0.4-1.5-0.9-1.9-1.5c-0.4-0.6-0.6-1.3-0.6-2.1
		c0-1.4,0.6-2.6,1.9-3.5s2.9-1.4,5-1.4c1.5,0,2.9,0.2,4.4,0.7c1.4,0.5,2.8,1.2,4.1,2.2l-1.3,1.8c-1.1-0.9-2.2-1.5-3.5-2
		c-1.2-0.4-2.5-0.7-3.7-0.7c-1.3,0-2.4,0.3-3.3,0.8c-0.9,0.5-1.3,1.2-1.3,2c0,0.3,0.1,0.6,0.2,0.9c0.1,0.3,0.4,0.5,0.6,0.7
		c0.7,0.5,2.3,0.9,4.7,1c1.1,0.1,2,0.1,2.6,0.2c1.8,0.2,3.2,0.8,4.3,1.7s1.6,2.1,1.6,3.5c0,1.7-0.7,3-2.2,4.1
		c-1.4,1.1-3.3,1.6-5.7,1.6c-1.8,0-3.4-0.3-4.9-0.8S242.9,120.4,241.6,119.3z"/>
</g>
</svg>
